<svg xmlns="http://www.w3.org/2000/svg" width="112" height="50" viewBox="0 0 112 50" fill="none"><g clip-path="url(#clip0_2002_9095)"><path d="M28.9836 33.4536H33.045C33.6903 33.4536 34.1848 33.4884 34.5116 33.5581C34.8049 33.6212 35.0027 33.7257 35.0999 33.8701C35.2022 34.0245 35.2542 34.2568 35.2542 34.5588V36.6748H37.9947V34.358C37.9947 33.8286 37.869 33.4154 37.6176 33.1299C37.3762 32.8544 36.9957 32.6619 36.4895 32.5574C36.756 32.4661 36.9991 32.3499 37.217 32.2089C37.5321 32.0064 37.7835 31.7276 37.9662 31.3807C38.1472 31.0355 38.2394 30.614 38.2394 30.1277C38.2394 29.4008 38.0584 28.7984 37.7014 28.3371C37.3477 27.879 36.8566 27.5421 36.2448 27.3347C35.6464 27.1322 34.9407 27.0293 34.1496 27.0293H26.2246V36.6748H28.9802V33.4552L28.9836 33.4536ZM28.9836 29.3527H34.1529C34.6004 29.3527 34.9424 29.434 35.1703 29.5967C35.3832 29.7477 35.4871 29.9834 35.4871 30.3136C35.4871 30.6439 35.3799 30.9044 35.1603 31.0903C34.9357 31.2795 34.5954 31.3758 34.1529 31.3758H28.9836V29.3544V29.3527Z" fill="#181C20"></path><path d="M47.4145 28.8894H42.2368L41.2797 27.0273H38.2441L43.4235 36.6729H46.2646L51.3837 27.0273H48.3632L47.4128 28.8894H47.4145ZM44.8349 33.9462L43.3129 30.9821H46.3484L44.8365 33.9462H44.8349Z" fill="#181C20"></path><path d="M65.0022 36.6729V27.0273H62.26V33.3022L54.7457 27.0273H52.0957V36.6729H54.853V30.461L62.3673 36.6729H65.0022Z" fill="#181C20"></path><path d="M79.132 30.0163C78.9443 29.4354 78.6157 28.9143 78.1565 28.4679C77.6972 28.0248 77.0737 27.6679 76.2993 27.4107C75.5316 27.1551 74.5644 27.0273 73.4246 27.0273H66.4316V36.6729H73.4246C74.5175 36.6729 75.4562 36.5417 76.2138 36.2812C76.9764 36.019 77.6017 35.6589 78.0693 35.2108C78.537 34.761 78.8823 34.2382 79.0951 33.6541C79.3047 33.0749 79.4119 32.4559 79.4119 31.8153C79.4119 31.1747 79.3181 30.5905 79.1337 30.0179L79.132 30.0163ZM69.1873 29.3524H73.3509C73.9811 29.3524 74.5141 29.4171 74.9349 29.5466C75.3455 29.6727 75.6774 29.852 75.9205 30.0793C76.1618 30.305 76.3395 30.5689 76.4468 30.8593C76.5557 31.1564 76.611 31.4784 76.611 31.8136C76.611 32.1687 76.5557 32.5023 76.4451 32.8044C76.3378 33.0998 76.1618 33.3653 75.9188 33.591C75.6757 33.8184 75.3422 34.0026 74.9315 34.1387C74.5125 34.2764 73.9811 34.3461 73.3509 34.3461H69.1873V29.3508V29.3524Z" fill="#181C20"></path><path d="M93.343 34.5791C93.8609 33.8323 94.1241 32.9112 94.1241 31.8424C94.1241 30.7736 93.8609 29.8791 93.3447 29.129C92.8267 28.3772 92.0456 27.7963 91.0215 27.3997C90.0091 27.0097 88.7251 26.8105 87.2048 26.8105C85.6845 26.8105 84.4006 27.008 83.3882 27.3997C82.364 27.7947 81.5796 28.3772 81.0583 29.1273C80.5353 29.8791 80.2705 30.7919 80.2705 31.8424C80.2705 32.8929 80.5353 33.8323 81.0583 34.5791C81.5813 35.3259 82.364 35.9051 83.3882 36.3001C84.3989 36.6901 85.6829 36.8892 87.2048 36.8892C88.7268 36.8892 90.0091 36.6917 91.0215 36.3001C92.0456 35.9051 92.8267 35.3259 93.3447 34.5791H93.343ZM89.347 34.2986C88.7402 34.4944 88.0195 34.594 87.2048 34.594C86.3902 34.594 85.6845 34.4927 85.0877 34.2902C84.4909 34.0877 84.0092 33.7937 83.6425 33.4082C83.2757 33.0227 83.0924 32.5534 83.0924 32.0003C83.0924 31.4283 83.2807 30.9395 83.6575 30.534C84.0343 30.1284 84.5242 29.8264 85.1276 29.6278C85.7311 29.4292 86.4235 29.3299 87.2048 29.3299C87.9862 29.3299 88.6786 29.4292 89.2821 29.6278C89.8856 29.8264 90.3755 30.1284 90.7522 30.534C91.129 30.9395 91.3174 31.4283 91.3174 32.0003C91.3174 32.5534 91.134 33.0227 90.7672 33.4082C90.4005 33.7937 89.9271 34.0877 89.347 34.2986Z" fill="#181C20"></path><path d="M102.502 27.0273H105.106L108.649 33.4867L112.193 27.0273H114.797V36.6729H112.016V30.4377L108.649 36.6729H108.644L105.282 30.4377V36.6729H102.502V27.0273Z" fill="#181C20"></path><path d="M32.1319 20.3883C31.7699 20.3883 31.4045 20.3269 31.0441 20.1992L20.6401 16.49C18.9706 15.8942 18.1007 14.0653 18.7024 12.4107L22.4487 2.10967C22.7403 1.30809 23.3287 0.667486 24.1064 0.305696C24.8842 -0.0560934 25.7591 -0.0975831 26.567 0.191185L36.9711 3.90036C38.6405 4.49615 39.5105 6.32502 38.9087 7.97962L35.1625 18.2807C34.6898 19.5785 33.4494 20.3883 32.1303 20.3883H32.1319ZM25.4759 0.996084C25.154 0.996084 24.8339 1.06579 24.5355 1.20519C24.0008 1.45413 23.5952 1.89558 23.3957 2.4449L19.6495 12.746C19.2355 13.8828 19.8339 15.1407 20.982 15.5507L31.386 19.2598C32.5342 19.6681 33.8048 19.0773 34.2188 17.9405L37.965 7.63941C38.379 6.50259 37.7806 5.24462 36.6325 4.83471L26.2268 1.12719C25.9821 1.03923 25.729 0.996084 25.4759 0.996084Z" fill="#181C20"></path><path d="M28.5837 9.63475C29.8242 9.05678 30.3566 7.59257 29.7729 6.36432C29.1892 5.13608 27.7103 4.60893 26.4698 5.1869C25.2293 5.76486 24.6968 7.22908 25.2806 8.45732C25.8643 9.68557 27.3432 10.2127 28.5837 9.63475Z" fill="#022BF7"></path><path d="M31.2614 15.2744C32.502 14.6964 33.0344 13.2322 32.4506 12.004C31.8669 10.7757 30.388 10.2486 29.1475 10.8265C27.907 11.4045 27.3746 12.8687 27.9583 14.097C28.5421 15.3252 30.0209 15.8524 31.2614 15.2744Z" fill="#022BF7"></path><path d="M12.0398 11.4756L2.05192 16.1776C0.697545 16.8152 0.121652 18.4191 0.765624 19.7601L5.51462 29.6491C6.15859 30.99 7.77857 31.5602 9.13294 30.9226L19.1208 26.2206C20.4752 25.583 21.0511 23.9791 20.4071 22.6381L15.6581 12.7491C15.0141 11.4082 13.3941 10.838 12.0398 11.4756Z" fill="white"></path><path d="M7.96846 31.684C7.60473 31.684 7.241 31.6226 6.88733 31.4981C6.07774 31.2127 5.42738 30.6318 5.05863 29.8634L0.311703 19.9756C-0.450955 18.389 0.234599 16.4838 1.83702 15.7287L11.8237 11.0271C12.5997 10.662 13.473 10.6172 14.2843 10.9026C15.0939 11.1881 15.7442 11.769 16.113 12.5373L20.8616 22.4251C21.6242 24.0117 20.9387 25.9169 19.3363 26.672L9.34963 31.3736C8.91047 31.5794 8.44114 31.684 7.97014 31.684H7.96846ZM2.2678 16.6282C1.16488 17.1477 0.695547 18.4571 1.21851 19.5491L5.96711 29.4369C6.22021 29.9663 6.66775 30.3646 7.22424 30.5604C7.78073 30.7563 8.38248 30.7264 8.9155 30.4741L18.9021 25.7725C20.0051 25.2531 20.4744 23.9437 19.9514 22.8517L15.2028 12.9639C14.9497 12.4344 14.5022 12.0361 13.9457 11.8403C13.3892 11.6445 12.7875 11.6744 12.2544 11.9266L2.2678 16.6282Z" fill="#181C20"></path><path d="M7.69042 22.6012C9.06142 22.6012 10.1728 21.5008 10.1728 20.1434C10.1728 18.786 9.06142 17.6855 7.69042 17.6855C6.31942 17.6855 5.20801 18.786 5.20801 20.1434C5.20801 21.5008 6.31942 22.6012 7.69042 22.6012Z" fill="#022BF7"></path><path d="M13.6211 24.6891C14.9921 24.6891 16.1035 23.5887 16.1035 22.2313C16.1035 20.8739 14.9921 19.7734 13.6211 19.7734C12.2501 19.7734 11.1387 20.8739 11.1387 22.2313C11.1387 23.5887 12.2501 24.6891 13.6211 24.6891Z" fill="#022BF7"></path></g><defs><clipPath id="clip0_2002_9095"><rect width="111.404" height="50" fill="white"></rect></clipPath></defs></svg>
